<svg xmlns="http://www.w3.org/2000/svg" width="850" height="172" viewBox="0 0 850 172" version="1.1"><path d="M 393.254 48.460 C 390.918 49.190, 386.779 51.216, 384.056 52.964 C 381.333 54.711, 377.559 57.853, 375.668 59.946 C 373.777 62.039, 371.104 65.719, 369.728 68.125 C 368.352 70.531, 366.400 74.975, 365.392 78 C 364.163 81.685, 363.554 86.470, 363.545 92.500 C 363.533 100.264, 363.914 102.324, 366.320 107.500 C 367.853 110.800, 370.546 115.003, 372.304 116.839 C 374.062 118.676, 377.750 121.376, 380.500 122.839 C 385 125.234, 386.550 125.500, 396 125.500 C 405.745 125.500, 406.987 125.269, 413.275 122.291 C 417.400 120.337, 421.960 117.121, 424.933 114.068 C 427.619 111.311, 431.208 106.271, 432.908 102.868 C 434.609 99.465, 436 96.077, 436 95.340 C 436 94.351, 434.215 94, 429.185 94 L 422.370 94 420.807 97.279 C 419.947 99.082, 417.970 102.071, 416.413 103.921 C 414.856 105.772, 411.313 108.342, 408.541 109.633 C 405.177 111.200, 401.658 111.984, 397.962 111.990 C 394.189 111.997, 391.004 111.283, 387.970 109.750 C 385.520 108.513, 382.499 105.970, 381.256 104.099 C 380.013 102.228, 378.497 98.853, 377.888 96.599 C 377.278 94.345, 377.018 90.171, 377.310 87.325 C 377.601 84.479, 378.711 80.181, 379.776 77.774 C 380.840 75.368, 383.235 71.662, 385.098 69.541 C 386.961 67.419, 390.739 64.634, 393.493 63.351 C 396.947 61.743, 400.334 61.017, 404.412 61.010 C 408.944 61.002, 411.332 61.590, 414.638 63.528 C 417.996 65.496, 419.568 67.379, 421.726 72.018 L 424.500 77.979 431.378 77.990 L 438.256 78 437.606 73.750 C 437.248 71.412, 435.596 66.704, 433.933 63.286 C 432.241 59.808, 429.278 55.725, 427.205 54.015 C 425.167 52.335, 421.121 50.069, 418.212 48.980 C 414.527 47.600, 410.588 47.020, 405.212 47.067 C 400.971 47.104, 395.589 47.731, 393.254 48.460 M 304.964 74.709 C 297.559 88.848, 288.736 105.723, 285.357 112.209 L 279.214 124 286.901 124 L 294.589 124 299 115 L 303.411 106 319.018 106 L 334.625 106 336.945 115 L 339.266 124 346.990 124 L 354.714 124 346.842 96.250 C 342.512 80.987, 337.777 64.112, 336.321 58.750 L 333.672 49 326.050 49 L 318.427 49 304.964 74.709 M 461.964 74.709 C 454.559 88.848, 445.736 105.723, 442.357 112.209 L 436.214 124 443.901 124 L 451.589 124 456 115 L 460.411 106 476.018 106 L 491.625 106 493.945 115 L 496.266 124 503.990 124 L 511.714 124 503.842 96.250 C 499.512 80.987, 494.777 64.112, 493.321 58.750 L 490.672 49 483.050 49 L 475.427 49 461.964 74.709 M 531.535 53.250 C 531.212 55.587, 529.160 72.208, 526.974 90.185 C 524.788 108.162, 523 123.158, 523 123.509 C 523 123.860, 532.112 124.002, 543.250 123.824 L 563.500 123.500 570.003 120.418 C 573.666 118.682, 578.651 115.191, 581.418 112.424 C 584.412 109.430, 587.731 104.580, 589.915 100.006 C 593.356 92.801, 593.500 92.058, 593.500 81.500 C 593.500 71.477, 593.260 70.045, 590.797 65.377 C 589.311 62.559, 585.983 58.394, 583.401 56.122 C 580.629 53.682, 576.647 51.379, 573.672 50.495 C 570.006 49.407, 563.672 49, 550.380 49 L 532.123 49 531.535 53.250 M 612.625 52.125 C 612.281 53.844, 612 56.711, 612 58.497 C 612 61.482, 612.303 61.790, 615.750 62.312 C 617.813 62.624, 629.950 62.921, 642.723 62.972 L 665.946 63.064 666.418 60.782 C 666.678 59.527, 667.168 56.362, 667.507 53.750 L 668.123 49 640.686 49 L 613.250 49 612.625 52.125 M 683.535 53.250 C 683.212 55.587, 681.160 72.208, 678.974 90.185 C 676.788 108.162, 675 123.125, 675 123.435 C 675 123.746, 678.078 124, 681.841 124 L 688.681 124 691.426 100.750 C 692.935 87.963, 694.419 76.433, 694.724 75.129 C 695.097 73.530, 697.621 81.016, 702.478 98.129 L 709.679 123.500 715.047 123.500 L 720.415 123.500 733.458 98.706 C 742.219 82.050, 746.581 74.665, 746.748 76.206 C 746.884 77.468, 745.745 88.625, 744.217 101 L 741.439 123.500 747.838 123.798 C 751.357 123.962, 754.429 123.904, 754.665 123.668 C 754.901 123.433, 757.089 107.098, 759.528 87.370 C 761.967 67.641, 763.971 50.921, 763.981 50.212 C 763.996 49.234, 761.783 48.994, 754.751 49.212 L 745.502 49.500 732.001 75.199 C 724.575 89.334, 718.270 101.114, 717.989 101.377 C 717.708 101.640, 714.146 89.962, 710.074 75.427 L 702.669 49 693.396 49 L 684.123 49 683.535 53.250 M 775.098 51.209 C 775.765 52.469, 781.172 62.584, 787.114 73.686 L 797.917 93.872 796.464 106.186 C 795.665 112.959, 794.795 119.737, 794.531 121.250 L 794.050 124 801.025 124 C 805.919 124, 808.011 123.627, 808.036 122.750 C 808.056 122.063, 808.902 115.143, 809.915 107.373 L 811.759 93.246 828.188 72.338 C 837.224 60.838, 844.955 50.883, 845.367 50.215 C 845.932 49.301, 844.180 49, 838.309 49.001 L 830.500 49.001 818.599 64.516 C 812.053 73.049, 806.508 79.841, 806.275 79.608 C 806.042 79.376, 802.372 72.506, 798.120 64.343 L 790.387 49.500 782.136 49.209 L 773.885 48.917 775.098 51.209 M 543.633 66.671 C 543.319 68.777, 542.141 78.375, 541.014 88 C 539.887 97.625, 538.747 106.800, 538.480 108.390 L 537.994 111.279 549.248 110.783 C 558.793 110.361, 561.284 109.890, 565.650 107.677 C 568.481 106.243, 572.181 103.391, 573.871 101.340 C 575.561 99.290, 577.632 95.594, 578.472 93.128 C 579.312 90.662, 580 86.006, 580 82.782 C 580 78.903, 579.327 75.601, 578.009 73.018 C 576.914 70.872, 574.364 67.852, 572.341 66.308 C 568.847 63.640, 568.053 63.484, 556.433 63.171 L 544.203 62.841 543.633 66.671 M 316.716 79.544 L 310.009 93 320.612 93 C 329.224 93, 331.114 92.741, 330.683 91.618 C 330.392 90.857, 328.723 84.895, 326.974 78.368 C 325.226 71.840, 323.712 66.407, 323.609 66.294 C 323.506 66.181, 320.404 72.143, 316.716 79.544 M 473.716 79.544 L 467.009 93 477.612 93 C 486.224 93, 488.114 92.741, 487.683 91.618 C 487.392 90.857, 485.723 84.895, 483.974 78.368 C 482.226 71.840, 480.712 66.407, 480.609 66.294 C 480.506 66.181, 477.404 72.143, 473.716 79.544 M 612.897 78.802 L 609.294 79.103 607.095 97.802 C 605.885 108.086, 604.636 118.188, 604.320 120.250 L 603.744 124 631.236 124 L 658.728 124 659.364 119.360 C 659.714 116.809, 660 113.659, 660 112.360 L 660 110 639.725 110 L 619.449 110 620.367 101 L 621.286 92 640.045 92 L 658.804 92 659.507 85.939 C 659.894 82.605, 660.051 79.731, 659.855 79.551 C 659.660 79.372, 649.825 79.062, 638 78.863 C 626.175 78.663, 614.879 78.636, 612.897 78.802" stroke="none" fill="#11649e" fill-rule="evenodd"/><path d="M 15.897 86.446 L 26.500 123.970 34.035 123.985 L 41.570 124 56.946 94.750 C 65.403 78.662, 74.316 61.788, 76.752 57.250 L 81.181 49 73.713 49 L 66.245 49 51.412 77.619 C 43.254 93.359, 36.369 105.622, 36.112 104.869 C 35.855 104.116, 32.212 91.350, 28.017 76.500 L 20.389 49.500 12.842 49.211 L 5.295 48.921 15.897 86.446 M 91.535 53.250 C 91.212 55.587, 89.160 72.208, 86.974 90.185 C 84.788 108.162, 83 123.125, 83 123.435 C 83 123.746, 86.150 124, 90 124 C 95.634 124, 97 123.700, 97 122.461 C 97 121.615, 98.791 105.977, 100.981 87.711 C 103.170 69.445, 105.184 53.263, 105.456 51.750 L 105.950 49 99.036 49 L 92.123 49 91.535 53.250 M 123.625 52.125 C 123.281 53.844, 123 56.946, 123 59.018 L 123 62.787 149.976 62.914 L 176.951 63.042 177.421 60.771 C 177.679 59.522, 178.168 56.362, 178.507 53.750 L 179.123 49 151.686 49 L 124.250 49 123.625 52.125 M 189 49.978 C 189 50.516, 191.466 65.929, 194.479 84.228 C 197.493 102.528, 200.217 118.981, 200.532 120.791 L 201.106 124.082 208.666 123.791 L 216.226 123.500 225.863 99.260 C 231.163 85.929, 235.744 75.016, 236.042 75.010 C 236.340 75.005, 238.079 84.787, 239.907 96.750 C 241.735 108.713, 243.463 119.755, 243.748 121.290 L 244.266 124.079 251.796 123.790 L 259.326 123.500 274.537 86.210 L 289.748 48.920 282.198 49.210 L 274.648 49.500 264.657 74.250 C 259.161 87.863, 254.399 99, 254.075 99 C 253.751 99, 251.988 88.763, 250.158 76.250 C 248.327 63.737, 246.594 52.487, 246.306 51.250 C 245.828 49.191, 245.211 49, 239.039 49 L 232.296 49 222.480 74 C 217.082 87.750, 212.388 99, 212.049 99 C 211.711 99, 209.664 87.750, 207.500 74 L 203.566 49 196.283 49 C 192.203 49, 189 49.430, 189 49.978 M 120.487 79.325 C 120.271 79.971, 118.948 90.072, 117.547 101.770 C 116.146 113.469, 115 123.256, 115 123.520 C 115 123.784, 127.314 124, 142.364 124 L 169.728 124 170.364 119.360 C 170.714 116.809, 171 113.659, 171 112.360 L 171 110 150.725 110 L 130.449 110 131.367 101 L 132.286 92 151.045 92 L 169.804 92 170.507 85.939 C 170.894 82.605, 171.051 79.741, 170.855 79.573 C 170.660 79.406, 159.335 79.018, 145.690 78.710 C 127.145 78.291, 120.781 78.446, 120.487 79.325" stroke="none" fill="#15b1db" fill-rule="evenodd"/></svg>